<svg width="120" height="120" viewBox="0 0 120 120" fill="none" xmlns="http://www.w3.org/2000/svg">
<path d="M65.3035 40.5548L72.3745 47.6259C86.043 61.2945 86.043 83.455 72.3745 97.1235L70.607 98.891C56.9385 112.559 34.7777 112.559 21.1094 98.891C7.44104 85.223 7.44104 63.062 21.1094 49.3937L28.1805 56.465C18.4174 66.228 18.4174 82.057 28.1805 91.82C37.9436 101.583 53.7725 101.583 63.536 91.82L65.3035 90.0525C75.0665 80.289 75.0665 64.46 65.3035 54.697L58.2325 47.6259L65.3035 40.5548ZM98.891 70.607L91.82 63.536C101.583 53.7725 101.583 37.9436 91.82 28.1805C82.057 18.4174 66.228 18.4174 56.465 28.1805L54.697 29.9482C44.9339 39.7113 44.9339 55.5405 54.697 65.3035L61.768 72.3745L54.697 79.4455L47.6259 72.3745C33.9575 58.7065 33.9575 36.5455 47.6259 22.8772L49.3937 21.1094C63.062 7.44104 85.223 7.44104 98.891 21.1094C112.559 34.7777 112.559 56.9385 98.891 70.607Z" fill="white"/>
</svg>
